<svg width="54" height="54" viewBox="0 0 54 54" fill="none" xmlns="http://www.w3.org/2000/svg">
<path d="M46.0957 38.565L36.9495 30.2491C36.5172 29.8561 35.949 29.6465 35.3651 29.6646C34.7811 29.6826 34.227 29.9269 33.8198 30.3458L28.4355 35.8831C27.1395 35.6355 24.534 34.8233 21.852 32.1481C19.17 29.4638 18.3578 26.8516 18.117 25.5646L23.6498 20.1781C24.0692 19.7711 24.3138 19.2169 24.3319 18.6328C24.3499 18.0486 24.14 17.4804 23.7465 17.0483L15.4328 7.9043C15.0391 7.47085 14.492 7.20793 13.9076 7.17138C13.3232 7.13483 12.7476 7.32753 12.303 7.70855L7.4205 11.8958C7.0315 12.2862 6.79932 12.8058 6.768 13.356C6.73425 13.9185 6.09075 27.243 16.4228 37.5795C25.4363 46.5908 36.7268 47.25 39.8363 47.25C40.2908 47.25 40.5698 47.2365 40.644 47.232C41.1942 47.2013 41.7135 46.968 42.102 46.5773L46.287 41.6926C46.6695 41.2494 46.8636 40.6742 46.8279 40.0899C46.7922 39.5055 46.5294 38.9583 46.0957 38.565Z" fill="white"/>
</svg>
