<svg width="60" height="60" viewBox="0 0 60 60" fill="none" xmlns="http://www.w3.org/2000/svg">
<g clip-path="url(#clip0_9_81)">
<path d="M48.8175 11.9975C51.8475 18.5175 51.16 26.1925 47.805 32.43C45.0525 37.5475 40.945 41.78 37.56 46.465C36.0125 48.61 34.45 50.84 33.3875 53.2825C33.035 54.095 32.73 54.9275 32.43 55.7625C32.1275 56.595 31.87 57.445 31.58 58.2825C31.3075 59.0675 30.99 59.9925 30.0125 60H29.995C28.83 59.9975 28.5475 58.675 28.2575 57.7825C27.5475 55.5975 26.805 53.5 25.71 51.47C24.435 49.11 22.8475 46.9275 21.235 44.7925L48.8175 11.9975ZM21.3625 19.2625L11.465 31.03C13.275 34.88 16.0175 38.1875 18.6425 41.48C19.26 42.255 19.8775 43.035 20.485 43.82L32.945 29.0075L32.8725 29.0325C28.52 30.535 23.645 28.305 21.8925 24.065C21.6528 23.4895 21.4775 22.8892 21.37 22.275C21.2125 21.1825 21.1775 20.3725 21.36 19.28L21.3625 19.2625ZM13.73 7.87254L13.7225 7.88254C8.855 14.0475 8.02 22.5825 10.93 29.8075L22.8925 15.585L22.7475 15.46L13.73 7.87254ZM36.6525 1.09004L27.0575 12.4975C27.0796 12.4881 27.1021 12.4798 27.125 12.4725C31.125 11.095 35.6325 12.8475 37.675 16.5375C38.115 17.335 38.4825 18.245 38.6175 19.15C38.7875 20.265 38.83 21.0825 38.6475 22.2L38.64 22.24L48.23 10.8375C45.7239 6.26666 41.6041 2.79397 36.675 1.09754L36.6525 1.09004ZM23.665 14.67L35.405 0.712541L35.2875 0.682541C33.5503 0.225904 31.7612 -0.00350877 29.965 4.05596e-05C27.0565 0.0272825 24.1851 0.655634 21.531 1.84563C18.877 3.03563 16.4976 4.76157 14.5425 6.91504L14.5025 6.96004L23.665 14.67Z" fill="white"/>
</g>
<defs>
<clipPath id="clip0_9_81">
<rect width="60" height="60" fill="white"/>
</clipPath>
</defs>
</svg>
